<svg width="13" height="13" viewBox="0 0 13 13" fill="none" xmlns="http://www.w3.org/2000/svg">
<path d="M12.6875 12.0689L9.38352 8.76488C10.1775 7.8117 10.5734 6.58912 10.4889 5.35146C10.4045 4.1138 9.84607 2.95636 8.92994 2.11992C8.01381 1.28347 6.81047 0.832425 5.57025 0.860605C4.33003 0.888785 3.14842 1.39402 2.27123 2.27122C1.39404 3.14841 0.8888 4.33002 0.86062 5.57024C0.83244 6.81045 1.28349 8.01379 2.11993 8.92992C2.95638 9.84605 4.11382 10.4044 5.35148 10.4889C6.58914 10.5734 7.81172 10.1775 8.7649 9.3835L12.0689 12.6875L12.6875 12.0689ZM1.75002 5.6875C1.75002 4.90874 1.98095 4.14747 2.41361 3.49995C2.84627 2.85243 3.46122 2.34775 4.1807 2.04973C4.90019 1.75171 5.69189 1.67373 6.45569 1.82566C7.21949 1.97759 7.92108 2.3526 8.47175 2.90327C9.02242 3.45394 9.39743 4.15554 9.54936 4.91934C9.70129 5.68314 9.62332 6.47484 9.3253 7.19432C9.02728 7.91381 8.5226 8.52876 7.87508 8.96142C7.22756 9.39407 6.46628 9.625 5.68752 9.625C4.64359 9.62385 3.64274 9.20863 2.90457 8.47046C2.16639 7.73229 1.75118 6.73144 1.75002 5.6875Z" fill="#616060"/>
</svg>
